<?xml version="1.0" encoding="iso-8859-1"?>
<!-- Uploaded to: SVG Repo, www.svgrepo.com, Generator: SVG Repo Mixer Tools -->
<svg height="800px" width="800px" version="1.1" id="Capa_1" xmlns="http://www.w3.org/2000/svg" xmlns:xlink="http://www.w3.org/1999/xlink" 
	 viewBox="0 0 36.391 36.391" xml:space="preserve">
<g>
	<path style="fill:#010002;" d="M36.388,17.248c0-2.283-1.853-4.138-4.139-4.14h-1.77l4.179-4.179L30.387,4.66
		c-1.614-1.615-4.235-1.615-5.853,0l-1.25,1.251v-5.91h-6.036c-2.285,0-4.14,1.854-4.14,4.14v1.775L8.927,1.733L4.659,6.002
		c-1.616,1.616-1.616,4.236,0,5.854l1.256,1.254H0l0.002,6.037C0,21.433,1.855,23.286,4.14,23.284h1.773l-4.18,4.182l4.27,4.269
		c1.615,1.616,4.236,1.616,5.852,0l1.254-1.256v5.911h6.037c2.284,0,4.139-1.853,4.139-4.139V30.48l4.181,4.18l4.268-4.268
		c1.615-1.617,1.615-4.238-0.002-5.856l-1.253-1.253h5.912L36.388,17.248z M18.198,25.697c-4.143,0-7.502-3.358-7.502-7.502
		c0-4.143,3.359-7.501,7.502-7.501s7.501,3.358,7.501,7.501C25.699,22.339,22.341,25.697,18.198,25.697z"/>
</g>
</svg>